<svg width="80.000000" height="80.000000" viewBox="0 0 80 80" fill="none" xmlns="http://www.w3.org/2000/svg" xmlns:xlink="http://www.w3.org/1999/xlink">
	<desc>
			Created with Pixso.
	</desc>
	<defs/>
	<path id="Ellipse 11" d="M75.28 66.85C79.3 59.33 80.69 50.98 79.67 42.97C78.42 33 73.58 24.35 66.61 18.15C59.12 11.46 49.79 8.11 40.46 8.01C30.42 7.88 21.19 11.49 14.08 17.53C6.43 24.04 1.83 32.82 0.45 42.04C-0.84 50.56 0.67 58.86 4.28 66.01C5.28 67.98 7.77 68.52 9.63 67.34L12.51 65.5C14.37 64.32 14.89 61.85 13.97 59.84C11.62 54.69 10.92 49.09 11.73 43.74C12.79 36.64 16.4 30.54 21.48 26.22C26.94 21.57 33.67 19.33 40.33 19.41C47.51 19.49 54.05 22.23 59.02 26.66C64.38 31.44 67.52 37.79 68.35 44.41C69.08 50.11 68.06 55.63 65.73 60.45C64.76 62.44 65.23 64.91 67.06 66.14L69.9 68.04C71.73 69.27 74.23 68.79 75.28 66.85Z" fill="#FFFFFF" fill-opacity="1.000000" fill-rule="evenodd"/>
	<path id="Ellipse 12" d="M45.28 61.63C44.39 64.93 41.01 66.88 37.71 66C34.42 65.12 32.46 61.73 33.34 58.43C34.23 55.14 47.19 30.63 47.19 30.63C47.19 30.63 46.16 58.34 45.28 61.63Z" fill="#FFFFFF" fill-opacity="1.000000" fill-rule="nonzero"/>
</svg>
