<svg width="33.506165" height="32.001953" viewBox="0 0 33.5062 32.002" fill="none"
	xmlns="http://www.w3.org/2000/svg" xmlns:xlink="http://www.w3.org/1999/xlink">
	<defs />
	<path id="Vector 3" d="M10 13.26L16.51 20L32 4" stroke="#0297D4" stroke-opacity="1.000000"
		stroke-width="3.000000" stroke-linecap="round" />
	<path id="Ellipse 17"
		d="M25.08 2.82C22.31 0.91 19.11 -0.02 15.92 0C11.93 0.02 8.28 1.5 5.49 3.93C2.48 6.55 0.69 10.05 0.16 13.72C-0.41 17.67 0.52 21.49 2.52 24.61C4.66 27.98 7.87 30.26 11.42 31.32C15.24 32.47 19.16 32.11 22.54 30.59C26.18 28.96 28.91 26.13 30.48 22.78C31.93 19.7 32.3 16.39 31.76 13.28C31.61 12.38 30.69 11.87 29.82 12.12C28.94 12.36 28.44 13.27 28.58 14.17C28.94 16.69 28.53 19.19 27.5 21.38C26.16 24.26 23.88 26.39 21.19 27.59C18.3 28.89 15.18 29.02 12.36 28.17C9.32 27.27 6.87 25.32 5.29 22.84C3.58 20.17 3 17.1 3.42 14.19C3.86 11.05 5.43 8.34 7.65 6.41C10.04 4.33 12.99 3.3 15.93 3.29C18.51 3.27 20.92 4.03 22.93 5.34C23.69 5.84 24.73 5.77 25.32 5.08C25.91 4.39 25.83 3.34 25.08 2.82Z"
		fill="#0297D4" fill-opacity="1.000000" fill-rule="evenodd" />
</svg>