<svg width="16.000000" height="20.411621" viewBox="0 0 16 20.4116" fill="none" xmlns="http://www.w3.org/2000/svg" xmlns:xlink="http://www.w3.org/1999/xlink">
	<desc>
			Created with Pixso.
	</desc>
	<defs/>
	<path id="Vector" d="M7.26 20.13C7.26 20.13 0 14.01 0 8C0 5.87 0.84 3.84 2.34 2.34C3.84 0.84 5.87 0 8 0C10.12 0 12.15 0.84 13.65 2.34C15.15 3.84 16 5.87 16 8C16 14.01 8.73 20.13 8.73 20.13C8.33 20.5 7.66 20.5 7.26 20.13ZM8 11.5C8.45 11.5 8.91 11.4 9.33 11.23C9.76 11.05 10.14 10.79 10.47 10.47C10.79 10.14 11.05 9.76 11.23 9.33C11.4 8.91 11.5 8.45 11.5 8C11.5 7.54 11.4 7.08 11.23 6.66C11.05 6.23 10.79 5.85 10.47 5.52C10.14 5.2 9.76 4.94 9.33 4.76C8.91 4.59 8.45 4.5 8 4.5C7.07 4.5 6.18 4.86 5.52 5.52C4.86 6.18 4.5 7.07 4.5 8C4.5 8.92 4.86 9.81 5.52 10.47C6.18 11.13 7.07 11.5 8 11.5Z" fill="#777777" fill-opacity="1.000000" fill-rule="evenodd"/>
</svg>
