<svg width="32.000244" height="32.001953" viewBox="0 0 32.0002 32.002" fill="none" xmlns="http://www.w3.org/2000/svg" xmlns:xlink="http://www.w3.org/1999/xlink">
	<desc>
			Created with Pixso.
	</desc>
	<defs/>
	<path id="Ellipse 17" d="M31.77 13.35C31.17 9.77 29.36 6.37 26.38 3.83C23.62 1.47 20.04 0.03 16.13 0C12.5 -0.03 8.83 1.16 5.82 3.65C3.01 5.96 0.97 9.24 0.27 13.08C-0.4 16.66 0.14 20.47 2.07 23.88C3.86 27.04 6.73 29.61 10.4 30.98C13.8 32.25 17.65 32.38 21.34 31.07C24.76 29.86 27.8 27.48 29.78 24.11C31.63 20.98 32.42 17.21 31.77 13.35ZM16.1 3.29C18.99 3.31 21.88 4.31 24.25 6.33C26.44 8.2 28.02 10.83 28.53 13.89C29.01 16.74 28.53 19.76 26.95 22.44C25.48 24.93 23.17 26.94 20.24 27.97C17.52 28.94 14.46 28.99 11.55 27.9C8.84 26.89 6.46 24.96 4.94 22.26C3.51 19.75 2.93 16.74 3.5 13.68C4.02 10.84 5.51 8.17 7.91 6.19C10.13 4.35 12.99 3.26 16.1 3.29Z" fill="#0297D4" fill-opacity="1.000000" fill-rule="evenodd"/>
	<path id="1" d="M22.53 19.62C22.53 22.44 20.12 24.34 16.5 24.34C12.99 24.34 10.68 22.46 10.47 19.69L10.46 19.55L13.56 19.55L13.57 19.67C13.71 20.87 14.82 21.73 16.5 21.73C18.15 21.73 19.23 20.8 19.23 19.49L19.23 19.47C19.23 17.99 18.13 17.17 16.25 17.17L14.48 17.17L14.48 14.86L16.2 14.86C17.84 14.86 18.89 14 18.89 12.75L18.89 12.73C18.89 11.44 18 10.64 16.47 10.64C14.95 10.64 13.93 11.47 13.8 12.76L13.79 12.86L10.8 12.86L10.81 12.73C11.04 9.95 13.22 8.15 16.47 8.15C19.8 8.15 21.95 9.83 21.95 12.3L21.95 12.32C21.95 14.25 20.53 15.51 18.72 15.88L18.72 15.95C21.03 16.16 22.53 17.5 22.53 19.6L22.53 19.62Z" fill="#0297D4" fill-opacity="1.000000" fill-rule="evenodd"/>
</svg>
