<svg width="32.000244" height="32.001953" viewBox="0 0 32.0002 32.002" fill="none" xmlns="http://www.w3.org/2000/svg" xmlns:xlink="http://www.w3.org/1999/xlink">
	<desc>
			Created with Pixso.
	</desc>
	<defs/>
	<path id="Ellipse 17" d="M31.77 13.35C31.17 9.77 29.36 6.37 26.38 3.83C23.62 1.47 20.04 0.03 16.13 0C12.5 -0.03 8.83 1.16 5.82 3.65C3.01 5.96 0.97 9.24 0.27 13.08C-0.4 16.66 0.14 20.47 2.07 23.88C3.86 27.04 6.73 29.61 10.4 30.98C13.8 32.25 17.65 32.38 21.34 31.07C24.76 29.86 27.8 27.48 29.78 24.11C31.63 20.98 32.42 17.21 31.77 13.35ZM16.1 3.29C18.99 3.31 21.88 4.31 24.25 6.33C26.44 8.2 28.02 10.83 28.53 13.89C29.01 16.74 28.53 19.76 26.95 22.44C25.48 24.93 23.17 26.94 20.24 27.97C17.52 28.94 14.46 28.99 11.55 27.9C8.84 26.89 6.46 24.96 4.94 22.26C3.51 19.75 2.93 16.74 3.5 13.68C4.02 10.84 5.51 8.17 7.91 6.19C10.13 4.35 12.99 3.26 16.1 3.29Z" fill="#0297D4" fill-opacity="1.000000" fill-rule="evenodd"/>
	<path id="1" d="M22.53 18.9C22.53 22.17 20.12 24.39 16.64 24.39C13.32 24.39 11.13 22.42 10.95 19.83L10.94 19.68L13.88 19.68L13.9 19.75C14.13 20.89 15.19 21.8 16.65 21.8C18.32 21.8 19.48 20.63 19.48 18.97L19.48 18.95C19.48 17.29 18.31 16.14 16.66 16.14C15.88 16.14 15.21 16.37 14.7 16.81C14.41 17.04 14.15 17.33 13.98 17.67L11.19 17.67L11.91 8.49L21.6 8.49L21.6 11.07L14.44 11.07L14.05 15.49L14.24 15.49C14.87 14.45 16.07 13.8 17.55 13.8C20.44 13.8 22.53 15.93 22.53 18.88L22.53 18.9Z" fill="#0297D4" fill-opacity="1.000000" fill-rule="evenodd"/>
</svg>
