<svg width="23.887329" height="19.199951" viewBox="0 0 23.8873 19.2" fill="none" xmlns="http://www.w3.org/2000/svg" xmlns:xlink="http://www.w3.org/1999/xlink">
	<desc>
			Created with Pixso.
	</desc>
	<defs/>
	<path id="Vector" d="M20.65 12.3C20.53 11.5 19.91 10.87 19.12 10.69C16.02 9.96 15.25 8.18 15.12 6.21C14.57 6.11 13.59 6 11.94 6C10.28 6 9.31 6.11 8.76 6.21C8.63 8.18 7.85 9.96 4.76 10.69C3.96 10.88 3.35 11.5 3.23 12.3L2.64 16.43C2.43 17.88 3.49 19.2 4.98 19.2L18.9 19.2C20.38 19.2 21.45 17.88 21.24 16.43L20.65 12.3ZM11.94 16.19C10.26 16.19 8.91 14.84 8.91 13.19C8.91 11.53 10.26 10.19 11.94 10.19C13.61 10.19 14.97 11.53 14.97 13.19C14.97 14.84 13.61 16.19 11.94 16.19ZM23.88 4.8C23.85 3 19.27 0 11.94 0C4.61 0 0.03 3 0 4.8C-0.03 6.6 0.02 8.94 3.04 8.55C6.57 8.09 6.35 6.86 6.35 5.1C6.35 3.87 9.22 3.57 11.94 3.57C14.65 3.57 17.52 3.87 17.52 5.1C17.52 6.86 17.31 8.09 20.84 8.55C23.85 8.94 23.91 6.6 23.88 4.8Z" fill="#FFFFFF" fill-opacity="1.000000" fill-rule="nonzero"/>
</svg>
